<!DOCTYPE svg PUBLIC "-//W3C//DTD SVG 1.1//EN" "http://www.w3.org/Graphics/SVG/1.1/DTD/svg11.dtd">
<!-- Uploaded to: SVG Repo, www.svgrepo.com, Transformed by: SVG Repo Mixer Tools -->
<svg width="800px" height="800px" viewBox="0 0 32 32" id="svg5" version="1.1" xmlns="http://www.w3.org/2000/svg" xmlns:svg="http://www.w3.org/2000/svg" fill="#000000">
<g id="SVGRepo_bgCarrier" stroke-width="0"/>
<g id="SVGRepo_tracerCarrier" stroke-linecap="round" stroke-linejoin="round"/>
<g id="SVGRepo_iconCarrier"> <defs id="defs2"/> <g id="layer1" transform="translate(-12,-292)"> <path d="m 21,316.00586 c -1.645008,0 -3,1.35499 -3,3 0,1.64501 1.354992,3 3,3 1.645008,0 3,-1.35499 3,-3 0,-1.64501 -1.354992,-3 -3,-3 z m 0,2 c 0.564129,0 1,0.43587 1,1 0,0.56413 -0.435871,1 -1,1 -0.564129,0 -1,-0.43587 -1,-1 0,-0.56413 0.435871,-1 1,-1 z" id="circle5400" style="color:#02d7e0;fill:#02d7e0;fill-rule:evenodd;stroke-linecap:round;stroke-linejoin:round;stroke-miterlimit:4.1;-inkscape-stroke:none"/> <path d="m 35.999999,316.00586 c -1.645008,0 -3,1.35499 -3,3 0,1.64501 1.354992,3 3,3 1.645008,0 3,-1.35499 3,-3 0,-1.64501 -1.354992,-3 -3,-3 z m 0,2 c 0.564129,0 1,0.43587 1,1 0,0.56413 -0.435871,1 -1,1 -0.564129,0 -1,-0.43587 -1,-1 0,-0.56413 0.435871,-1 1,-1 z" id="circle5402" style="color:#02d7e0;fill:#02d7e0;fill-rule:evenodd;stroke-linecap:round;stroke-linejoin:round;stroke-miterlimit:4.1;-inkscape-stroke:none"/> <path d="m 15,294.00586 c -0.552285,0 -1,0.44772 -1,1 0,0.55228 0.447715,1 1,1 h 1.179688 l 2.65039,13.24219 C 17.759297,309.70823 17,310.77542 17,312.00586 c 0,1.6447 1.355301,3 3,3 h 18.011718 c 0.552285,0 1,-0.44772 1,-1 0,-0.55228 -0.447715,-1 -1,-1 H 20 c -0.571296,0 -1,-0.4287 -1,-1 0,-0.5713 0.428704,-1 1,-1 h 16.011718 3 c 0.492161,2.4e-4 0.911339,-0.35764 0.988281,-0.84375 l 1.730469,-11 c 0.09599,-0.60725 -0.373487,-1.15652 -0.988281,-1.15625 H 18.619141 l -0.638672,-3.19531 C 17.887292,294.34287 17.476874,294.00603 17,294.00586 Z m 4.019531,6 h 20.552734 l -1.416016,9 L 20.820312,309 Z m 3.980469,2 c -0.552285,0 -1,0.44772 -1,1 0,0.55228 0.447715,1 1,1 h 13.011718 c 0.552285,0 1,-0.44772 1,-1 0,-0.55228 -0.447715,-1 -1,-1 z m 2,3 c -0.552285,0 -1,0.44772 -1,1 0,0.55228 0.447715,1 1,1 h 9.011718 c 0.552285,0 1,-0.44772 1,-1 0,-0.55228 -0.447715,-1 -1,-1 z" id="path5404" style="color:#02d7e0;fill:#02d7e0;fill-rule:evenodd;stroke-linecap:round;stroke-linejoin:round;stroke-miterlimit:4.1;-inkscape-stroke:none"/> </g> </g>
</svg>